<svg width="90" height="90" viewBox="0 0 90 90" fill="none" xmlns="http://www.w3.org/2000/svg">
<g clip-path="url(#clip0_202_189)">
<path d="M76.13 75.8501H74.54C74.24 75.8501 74.1 75.4401 74.34 75.2301L74.8 74.8301C75.19 74.4901 75.67 74.3101 76.17 74.3101H77.76C78.07 74.3101 78.2 74.7201 77.96 74.9301L77.5 75.3201C77.12 75.6701 76.63 75.8501 76.13 75.8501Z" fill="#007AFF"/>
<path d="M78.21 73.62L76.62 73.73C76.32 73.75 76.15 73.35 76.38 73.13L76.81 72.7C77.17 72.34 77.64 72.12 78.14 72.09L79.72 71.98C80.02 71.96 80.19 72.36 79.97 72.58L79.54 73.01C79.18 73.37 78.71 73.59 78.21 73.62Z" fill="#007AFF"/>
<path d="M80.13 71.2501L78.55 71.4701C78.25 71.5101 78.06 71.1201 78.27 70.8901L78.67 70.4401C79.01 70.0501 79.46 69.8001 79.96 69.7401L81.54 69.5201C81.84 69.4801 82.03 69.8701 81.83 70.1001L81.43 70.5601C81.08 70.9301 80.63 71.1801 80.13 71.2501Z" fill="#007AFF"/>
<path d="M81.88 68.7501L80.32 69.0801C80.02 69.1501 79.81 68.7701 80 68.5201L80.36 68.0401C80.67 67.6301 81.11 67.3501 81.59 67.2501L83.15 66.9201C83.45 66.8601 83.66 67.2301 83.48 67.4801L83.11 67.9601C82.8 68.3701 82.36 68.6501 81.88 68.7501Z" fill="#007AFF"/>
<path d="M83.44 66.14L81.91 66.58C81.62 66.66 81.37 66.31 81.54 66.04L81.87 65.54C82.15 65.11 82.57 64.8 83.05 64.66L84.58 64.22C84.87 64.13 85.12 64.49 84.95 64.76L84.62 65.27C84.34 65.69 83.92 66 83.44 66.14Z" fill="#007AFF"/>
<path d="M84.83 63.4201L83.34 63.9601C83.05 64.0701 82.79 63.7301 82.94 63.4501L83.23 62.9201C83.48 62.4701 83.87 62.1301 84.34 61.9601L85.83 61.4201C86.12 61.3101 86.38 61.6601 86.23 61.9301L85.93 62.4601C85.69 62.9101 85.3 63.2501 84.83 63.4201Z" fill="#007AFF"/>
<path d="M86.02 60.61L84.57 61.26C84.29 61.38 84 61.06 84.13 60.78L84.39 60.24C84.61 59.77 84.98 59.41 85.43 59.21L86.88 58.56C87.16 58.44 87.45 58.76 87.32 59.04L87.06 59.59C86.84 60.04 86.47 60.41 86.02 60.61Z" fill="#007AFF"/>
<path d="M87.01 57.73L85.6 58.48C85.33 58.62 85.02 58.32 85.13 58.03L85.35 57.47C85.54 56.99 85.88 56.6 86.32 56.37L87.72 55.62C87.99 55.48 88.3 55.78 88.19 56.07L87.97 56.63C87.79 57.1 87.45 57.49 87.01 57.73Z" fill="#007AFF"/>
<path d="M87.79 54.78L86.44 55.62C86.18 55.78 85.85 55.5 85.94 55.2L86.12 54.62C86.27 54.13 86.59 53.72 87.01 53.45L88.36 52.61C88.62 52.45 88.95 52.72 88.86 53.02L88.68 53.59C88.53 54.11 88.21 54.52 87.79 54.78Z" fill="#007AFF"/>
<path d="M88.37 51.79L87.08 52.72C86.83 52.9 86.48 52.65 86.55 52.34L86.69 51.75C86.81 51.25 87.09 50.82 87.5 50.52L88.79 49.59C89.04 49.41 89.39 49.66 89.32 49.97L89.18 50.56C89.06 51.06 88.77 51.49 88.37 51.79Z" fill="#007AFF"/>
<path d="M88.74 48.7601L87.52 49.7801C87.28 49.9801 86.92 49.7501 86.97 49.4401L87.07 48.8501C87.15 48.3401 87.4 47.8901 87.79 47.5701L89.01 46.5501C89.24 46.3601 89.61 46.5801 89.56 46.8901L89.47 47.4901C89.38 47.9901 89.12 48.4401 88.74 48.7601Z" fill="#007AFF"/>
<path d="M88.9 45.72L87.76 46.82C87.54 47.03 87.16 46.83 87.19 46.52L87.24 45.92C87.29 45.41 87.51 44.94 87.87 44.59L89.01 43.49C89.23 43.28 89.61 43.48 89.58 43.79L89.53 44.39C89.48 44.9 89.26 45.37 88.9 45.72Z" fill="#007AFF"/>
<path d="M88.84 42.67L87.78 43.85C87.57 44.08 87.18 43.9 87.19 43.59L87.2 42.99C87.21 42.48 87.4 41.99 87.73 41.62L88.79 40.44C88.99 40.21 89.39 40.39 89.38 40.7L89.37 41.3C89.36 41.81 89.17 42.3 88.84 42.67Z" fill="#007AFF"/>
<path d="M88.57 39.63L87.59 40.88C87.4 41.12 86.99 40.98 86.98 40.66L86.95 40.06C86.93 39.55 87.08 39.05 87.39 38.66L88.37 37.41C88.56 37.17 88.96 37.32 88.98 37.63L89.01 38.23C89.03 38.74 88.88 39.24 88.57 39.63Z" fill="#007AFF"/>
<path d="M88.09 36.62L87.2 37.94C87.03 38.19 86.61 38.07 86.57 37.76L86.5 37.16C86.44 36.65 86.56 36.14 86.84 35.73L87.73 34.42C87.9 34.17 88.32 34.28 88.35 34.6L88.42 35.2C88.49 35.7 88.37 36.21 88.09 36.62Z" fill="#007AFF"/>
<path d="M87.4 33.65L86.61 35.02C86.46 35.28 86.03 35.19 85.97 34.89L85.86 34.3C85.76 33.8 85.85 33.29 86.1 32.85L86.89 31.48C87.04 31.21 87.47 31.3 87.53 31.61L87.64 32.2C87.73 32.7 87.65 33.22 87.4 33.65Z" fill="#007AFF"/>
<path d="M86.51 30.73L85.81 32.16C85.68 32.43 85.25 32.37 85.17 32.07L85.01 31.49C84.88 30.99 84.92 30.48 85.14 30.03L85.84 28.6C85.97 28.33 86.4 28.39 86.48 28.69L86.64 29.27C86.77 29.77 86.72 30.29 86.51 30.73Z" fill="#007AFF"/>
<path d="M85.41 27.89L84.81 29.36C84.69 29.64 84.26 29.61 84.16 29.31L83.96 28.74C83.79 28.25 83.8 27.74 83.99 27.27L84.59 25.8C84.71 25.52 85.14 25.55 85.24 25.84L85.44 26.41C85.61 26.91 85.6 27.43 85.41 27.89Z" fill="#007AFF"/>
<path d="M84.12 25.13L83.63 26.64C83.54 26.93 83.11 26.93 82.98 26.64L82.75 26.08C82.55 25.61 82.53 25.09 82.68 24.61L83.17 23.1C83.26 22.81 83.7 22.81 83.82 23.1L84.06 23.65C84.25 24.14 84.27 24.65 84.12 25.13Z" fill="#007AFF"/>
<path d="M82.64 22.46L82.25 24C82.18 24.3 81.74 24.33 81.6 24.05L81.33 23.51C81.1 23.05 81.04 22.54 81.16 22.05L81.55 20.51C81.62 20.21 82.06 20.18 82.2 20.46L82.47 21C82.7 21.46 82.76 21.98 82.64 22.46Z" fill="#007AFF"/>
<path d="M80.97 19.91L80.69 21.47C80.64 21.77 80.21 21.83 80.05 21.56L79.74 21.04C79.48 20.6 79.38 20.09 79.47 19.6L79.74 18.03C79.79 17.73 80.22 17.67 80.38 17.94L80.69 18.46C80.96 18.91 81.06 19.42 80.97 19.91Z" fill="#007AFF"/>
<path d="M79.13 17.48L78.96 19.06C78.93 19.36 78.51 19.45 78.33 19.2L77.99 18.71C77.7 18.29 77.56 17.79 77.62 17.29L77.79 15.71C77.82 15.4 78.25 15.31 78.42 15.57L78.77 16.07C79.06 16.48 79.19 16.98 79.13 17.48Z" fill="#007AFF"/>
<path d="M77.13 15.18L77.08 16.77C77.07 17.07 76.65 17.19 76.46 16.95L76.08 16.48C75.75 16.08 75.59 15.59 75.61 15.09L75.67 13.5C75.68 13.19 76.1 13.08 76.29 13.32L76.67 13.79C76.98 14.19 77.15 14.68 77.13 15.18Z" fill="#007AFF"/>
<path d="M74.97 13.02L75.02 14.61C75.03 14.92 74.62 15.06 74.41 14.83L74 14.39C73.65 14.01 73.45 13.53 73.43 13.04L73.37 11.45C73.36 11.15 73.77 11 73.98 11.23L74.39 11.67C74.75 12.05 74.95 12.53 74.97 13.02Z" fill="#007AFF"/>
<path d="M72.67 11.03L72.84 12.61C72.87 12.91 72.48 13.09 72.25 12.88L71.81 12.47C71.44 12.12 71.2 11.65 71.15 11.16L70.98 9.58005C70.95 9.28005 71.34 9.10005 71.57 9.31005L72.01 9.72005C72.38 10.07 72.62 10.53 72.67 11.03Z" fill="#007AFF"/>
<path d="M70.23 9.19002L70.5 10.76C70.55 11.06 70.17 11.26 69.93 11.07L69.46 10.69C69.06 10.36 68.8 9.92002 68.71 9.43002L68.44 7.87002C68.39 7.57002 68.77 7.36002 69.01 7.56002L69.48 7.94002C69.88 8.26002 70.14 8.70002 70.23 9.19002Z" fill="#007AFF"/>
<path d="M67.67 7.53004L68.06 9.07003C68.13 9.37003 67.77 9.60004 67.51 9.42004L67.02 9.07003C66.6 8.77003 66.3 8.35004 66.18 7.87004L65.79 6.33004C65.72 6.03004 66.08 5.80003 66.34 5.98003L66.83 6.33004C67.25 6.63004 67.55 7.05004 67.67 7.53004Z" fill="#007AFF"/>
<path d="M65 6.05999L65.49 7.56999C65.58 7.85999 65.23 8.11999 64.97 7.94999L64.45 7.63999C64.01 7.36999 63.69 6.96999 63.53 6.49999L63.04 4.98999C62.95 4.69999 63.3 4.43999 63.56 4.60999L64.08 4.91999C64.52 5.17999 64.85 5.57999 65 6.05999Z" fill="#007AFF"/>
<path d="M62.24 4.78L62.84 6.25C62.96 6.53 62.62 6.81 62.34 6.67L61.81 6.4C61.35 6.17 61 5.78 60.81 5.32L60.21 3.85C60.1 3.57 60.43 3.29 60.7 3.43L61.24 3.71C61.7 3.93 62.05 4.31 62.24 4.78Z" fill="#007AFF"/>
<path d="M59.39 3.69005L60.09 5.12005C60.22 5.39005 59.91 5.69005 59.63 5.57005L59.07 5.33005C58.6 5.13005 58.22 4.77005 58 4.32005L57.3 2.89005C57.17 2.62005 57.48 2.32005 57.77 2.44005L58.32 2.68005C58.79 2.88005 59.17 3.24005 59.39 3.69005Z" fill="#007AFF"/>
<path d="M56.47 2.8L57.27 4.18C57.42 4.44 57.13 4.77 56.84 4.66L56.27 4.46C55.78 4.29 55.38 3.96 55.13 3.53L54.34 2.15C54.19 1.88 54.48 1.56 54.77 1.67L55.34 1.87C55.82 2.04 56.22 2.36 56.47 2.8Z" fill="#007AFF"/>
<path d="M53.5 2.11005L54.39 3.43005C54.56 3.69005 54.29 4.03005 53.99 3.94005L53.41 3.78005C52.91 3.64005 52.49 3.35005 52.21 2.93005L51.32 1.61005C51.15 1.36005 51.41 1.02005 51.72 1.10005L52.3 1.26005C52.79 1.40005 53.22 1.70005 53.5 2.11005Z" fill="#007AFF"/>
<path d="M50.48 1.64L51.46 2.89C51.65 3.13 51.41 3.49 51.1 3.43L50.51 3.31C50 3.21 49.56 2.94 49.25 2.55L48.28 1.3C48.09 1.06 48.33 0.699997 48.64 0.759997L49.23 0.879997C49.73 0.979997 50.18 1.24 50.48 1.64Z" fill="#007AFF"/>
<path d="M47.45 1.38002L48.51 2.56002C48.71 2.79002 48.5 3.16002 48.19 3.12002L47.59 3.05002C47.08 2.98002 46.62 2.75002 46.28 2.38002L45.22 1.20002C45.02 0.970018 45.23 0.600018 45.54 0.640018L46.14 0.710018C46.65 0.770018 47.11 1.01002 47.45 1.38002Z" fill="#007AFF"/>
<path d="M44.4 1.32999L45.54 2.43999C45.76 2.64999 45.57 3.03999 45.26 3.01999L44.66 2.98999C44.15 2.95999 43.67 2.75999 43.31 2.40999L42.17 1.30999C41.95 1.09999 42.14 0.709989 42.45 0.729989L43.05 0.759989C43.56 0.779989 44.04 0.979988 44.4 1.32999Z" fill="#007AFF"/>
<path d="M41.35 1.49L42.57 2.51C42.8 2.7 42.64 3.11 42.33 3.11L41.73 3.12C41.22 3.13 40.73 2.96 40.35 2.64L39.13 1.62C38.9 1.42 39.06 1.02 39.37 1.02L39.97 1.01C40.48 1 40.97 1.17 41.35 1.49Z" fill="#007AFF"/>
<path d="M38.32 1.87L39.61 2.8C39.86 2.98 39.72 3.39 39.41 3.42L38.81 3.47C38.3 3.51 37.8 3.38 37.39 3.09L36.11 2.16C35.86 1.98 35.99 1.57 36.31 1.54L36.91 1.49C37.42 1.44 37.92 1.57 38.32 1.87Z" fill="#007AFF"/>
<path d="M35.33 2.45002L36.68 3.29002C36.94 3.45002 36.84 3.87002 36.52 3.92002L35.92 4.01002C35.41 4.09002 34.9 3.99002 34.48 3.72002L33.13 2.88002C32.87 2.72002 32.98 2.30002 33.28 2.25002L33.88 2.16002C34.4 2.08002 34.91 2.18002 35.33 2.45002Z" fill="#007AFF"/>
<path d="M32.39 3.24004L33.79 3.98004C34.06 4.13004 33.99 4.55004 33.68 4.62004L33.09 4.75004C32.59 4.86004 32.07 4.80004 31.63 4.56004L30.22 3.82004C29.95 3.68004 30.03 3.25004 30.33 3.18004L30.92 3.04004C31.43 2.94004 31.94 3.01004 32.39 3.24004Z" fill="#007AFF"/>
<path d="M29.5 4.23999L30.95 4.87999C31.23 5.00999 31.19 5.43999 30.89 5.52999L30.31 5.69999C29.82 5.84999 29.3 5.81999 28.84 5.61999L27.39 4.96999C27.11 4.83999 27.16 4.40999 27.46 4.31999L28.04 4.14999C28.53 4.00999 29.05 4.02999 29.5 4.23999Z" fill="#007AFF"/>
<path d="M26.7 5.43002L28.19 5.97002C28.48 6.08002 28.46 6.51002 28.17 6.62002L27.61 6.83002C27.13 7.01002 26.61 7.02002 26.14 6.85002L24.65 6.31002C24.37 6.20002 24.38 5.77002 24.67 5.66002L25.23 5.45002C25.71 5.27002 26.23 5.26002 26.7 5.43002Z" fill="#007AFF"/>
<path d="M23.98 6.82001L25.51 7.26001C25.8 7.34001 25.82 7.78001 25.54 7.91001L24.99 8.16001C24.52 8.38001 24.01 8.42001 23.53 8.28001L22 7.84001C21.71 7.76001 21.69 7.32001 21.98 7.19001L22.53 6.94001C22.98 6.72001 23.5 6.68001 23.98 6.82001Z" fill="#007AFF"/>
<path d="M21.37 8.39001L22.93 8.72001C23.23 8.78001 23.28 9.21001 23 9.37001L22.47 9.66001C22.02 9.91001 21.51 9.99001 21.02 9.88001L19.47 9.55001C19.17 9.49001 19.12 9.06001 19.4 8.90001L19.93 8.61001C20.37 8.37001 20.88 8.29001 21.37 8.39001Z" fill="#007AFF"/>
<path d="M18.87 10.14L20.44 10.36C20.74 10.4 20.82 10.83 20.56 11L20.05 11.33C19.62 11.61 19.11 11.72 18.62 11.65L17.04 11.43C16.74 11.39 16.66 10.96 16.93 10.79L17.44 10.46C17.87 10.19 18.38 10.07 18.87 10.14Z" fill="#007AFF"/>
<path d="M16.5 12.06L18.08 12.17C18.38 12.19 18.49 12.61 18.24 12.8L17.76 13.16C17.35 13.47 16.85 13.62 16.36 13.58L14.78 13.47C14.47 13.45 14.37 13.03 14.62 12.84L15.1 12.48C15.51 12.18 16 12.03 16.5 12.06Z" fill="#007AFF"/>
<path d="M14.27 14.14H15.86C16.16 14.14 16.3 14.55 16.06 14.76L15.6 15.15C15.21 15.49 14.73 15.67 14.23 15.67H12.64C12.33 15.67 12.2 15.26 12.44 15.05L12.9 14.66C13.29 14.33 13.77 14.14 14.27 14.14Z" fill="#007AFF"/>
<path d="M12.2 16.38L13.79 16.27C14.09 16.25 14.26 16.65 14.04 16.87L13.61 17.29C13.25 17.65 12.78 17.87 12.28 17.9L10.69 18.01C10.39 18.03 10.22 17.63 10.44 17.41L10.87 16.99C11.23 16.63 11.7 16.41 12.2 16.38Z" fill="#007AFF"/>
<path d="M10.28 18.75L11.85 18.53C12.15 18.49 12.34 18.88 12.13 19.11L11.73 19.56C11.39 19.95 10.94 20.2 10.44 20.26L8.86999 20.48C8.56999 20.52 8.37999 20.13 8.57999 19.9L8.97999 19.45C9.32999 19.07 9.77999 18.81 10.28 18.75Z" fill="#007AFF"/>
<path d="M8.53 21.25L10.08 20.92C10.38 20.86 10.6 21.23 10.41 21.48L10.05 21.96C9.74 22.37 9.3 22.65 8.81 22.75L7.26 23.08C6.96 23.14 6.75 22.77 6.93 22.52L7.3 22.04C7.61 21.63 8.05 21.35 8.53 21.25Z" fill="#007AFF"/>
<path d="M6.96 23.86L8.49 23.42C8.78 23.34 9.03001 23.7 8.86001 23.96L8.53001 24.47C8.25001 24.9 7.83001 25.21 7.35001 25.35L5.82 25.79C5.53 25.87 5.28001 25.52 5.45001 25.25L5.78001 24.74C6.07001 24.31 6.48 24 6.96 23.86Z" fill="#007AFF"/>
<path d="M5.58 26.5801L7.07 26.0401C7.35 25.9301 7.62 26.2801 7.47 26.5501L7.18 27.0801C6.93 27.5301 6.54 27.8701 6.07 28.0401L4.58 28.5901C4.29 28.6901 4.02 28.3501 4.18 28.0801L4.48 27.5501C4.72 27.0901 5.11 26.7501 5.58 26.5801Z" fill="#007AFF"/>
<path d="M4.39 29.39L5.84 28.75C6.12 28.63 6.41 28.95 6.28 29.23L6.02 29.78C5.8 30.25 5.43 30.61 4.98 30.81L3.53 31.46C3.25 31.58 2.96 31.26 3.1 30.98L3.36 30.43C3.57 29.96 3.94 29.59 4.39 29.39Z" fill="#007AFF"/>
<path d="M3.40001 32.27L4.81001 31.52C5.08001 31.38 5.39001 31.68 5.28001 31.97L5.06001 32.53C4.87001 33.01 4.53001 33.4 4.09001 33.63L2.69001 34.38C2.42001 34.52 2.11001 34.22 2.22001 33.93L2.43001 33.37C2.62001 32.9 2.96001 32.51 3.40001 32.27Z" fill="#007AFF"/>
<path d="M2.62 35.2201L3.97 34.3801C4.23 34.2201 4.56 34.5001 4.47 34.8001L4.29 35.3801C4.14 35.8701 3.82 36.2801 3.4 36.5501L2.05 37.3901C1.79 37.5501 1.46 37.2801 1.55 36.9701L1.73 36.4001C1.88 35.8901 2.19 35.4801 2.62 35.2201Z" fill="#007AFF"/>
<path d="M2.04 38.2101L3.33 37.2701C3.58 37.0901 3.93 37.3501 3.86 37.6501L3.72 38.2401C3.6 38.7401 3.32 39.1701 2.91 39.4701L1.63 40.4001C1.38 40.5801 1.03 40.3301 1.1 40.0201L1.24 39.4301C1.35 38.9401 1.63 38.5101 2.04 38.2101Z" fill="#007AFF"/>
<path d="M1.67 41.24L2.89 40.22C3.12 40.02 3.49 40.25 3.44 40.56L3.34 41.16C3.26 41.67 3.01 42.12 2.62 42.44L1.4 43.46C1.17 43.66 0.800003 43.43 0.850003 43.12L0.940003 42.52C1.03 42.01 1.29 41.56 1.67 41.24Z" fill="#007AFF"/>
<path d="M1.51 44.28L2.65 43.17C2.87 42.96 3.25 43.16 3.22 43.48L3.17 44.08C3.12 44.59 2.9 45.06 2.54 45.41L1.4 46.51C1.18 46.72 0.799999 46.52 0.829999 46.21L0.889998 45.61C0.929998 45.1 1.15 44.63 1.51 44.28Z" fill="#007AFF"/>
<path d="M1.57 47.33L2.63 46.15C2.83 45.93 3.23 46.1 3.22 46.41L3.21 47.01C3.2 47.52 3.01 48.01 2.68 48.38L1.62 49.56C1.42 49.79 1.02 49.61 1.03 49.3L1.04 48.7C1.05 48.18 1.23 47.7 1.57 47.33Z" fill="#007AFF"/>
<path d="M1.83999 50.3701L2.81999 49.1201C3.00999 48.8801 3.40999 49.0301 3.42999 49.3401L3.45999 49.9501C3.47999 50.4601 3.32999 50.9601 3.01999 51.3501L2.03999 52.6001C1.84999 52.8401 1.43999 52.6901 1.42999 52.3801L1.39999 51.7801C1.37999 51.2601 1.52999 50.7601 1.83999 50.3701Z" fill="#007AFF"/>
<path d="M2.32 53.3801L3.21 52.0601C3.38 51.8001 3.8 51.9201 3.83 52.2301L3.9 52.8301C3.96 53.3401 3.84 53.8401 3.56 54.2601L2.67 55.5801C2.5 55.8301 2.08 55.7101 2.05 55.4001L1.98 54.8001C1.92 54.3001 2.04 53.7901 2.32 53.3801Z" fill="#007AFF"/>
<path d="M3.01 56.35L3.8 54.97C3.95 54.71 4.38 54.8 4.44 55.1L4.55 55.69C4.64 56.19 4.56 56.71 4.31 57.14L3.52 58.52C3.37 58.78 2.94 58.69 2.88 58.39L2.77 57.8C2.67 57.29 2.76 56.78 3.01 56.35Z" fill="#007AFF"/>
<path d="M3.9 59.26L4.6 57.83C4.73 57.56 5.16 57.62 5.24 57.92L5.39 58.5C5.52 59 5.47 59.51 5.26 59.96L4.56 61.39C4.43 61.66 4 61.6 3.92 61.3L3.77 60.72C3.63 60.23 3.68 59.71 3.9 59.26Z" fill="#007AFF"/>
<path d="M5 62.11L5.59 60.64C5.71 60.36 6.14 60.38 6.24 60.68L6.44 61.25C6.61 61.74 6.6 62.25 6.41 62.72L5.81 64.19C5.7 64.47 5.26 64.44 5.16 64.15L4.96 63.58C4.8 63.09 4.81 62.57 5 62.11Z" fill="#007AFF"/>
<path d="M6.29 64.8701L6.78 63.3601C6.87 63.0701 7.31 63.0701 7.43 63.3601L7.66 63.9201C7.86 64.3901 7.88 64.9101 7.73 65.3801L7.24 66.8901C7.14 67.1801 6.71 67.1801 6.59 66.8901L6.36 66.3301C6.16 65.8601 6.14 65.3501 6.29 64.8701Z" fill="#007AFF"/>
<path d="M7.77 67.54L8.16 66C8.23 65.7 8.67 65.67 8.81 65.95L9.08 66.49C9.31 66.95 9.37 67.46 9.25 67.95L8.86 69.49C8.79 69.78 8.36 69.81 8.21 69.53L7.94 68.99C7.71 68.54 7.65 68.02 7.77 67.54Z" fill="#007AFF"/>
<path d="M9.43 70.09L9.71 68.53C9.76 68.23 10.19 68.17 10.35 68.44L10.66 68.96C10.92 69.4 11.02 69.91 10.93 70.4L10.66 71.97C10.61 72.27 10.18 72.33 10.02 72.06L9.71 71.54C9.45 71.09 9.35 70.58 9.43 70.09Z" fill="#007AFF"/>
<path d="M11.27 72.52L11.44 70.94C11.47 70.64 11.89 70.55 12.08 70.8L12.42 71.3C12.72 71.72 12.85 72.22 12.79 72.72L12.62 74.3C12.59 74.6 12.16 74.69 11.99 74.44L11.64 73.94C11.35 73.52 11.22 73.02 11.27 72.52Z" fill="#007AFF"/>
<path d="M13.28 74.8201L13.34 73.2301C13.35 72.9301 13.77 72.8001 13.96 73.0501L14.34 73.52C14.66 73.92 14.83 74.4101 14.81 74.9101L14.75 76.5001C14.74 76.8001 14.32 76.9201 14.13 76.6801L13.75 76.2101C13.43 75.8101 13.26 75.3201 13.28 74.8201Z" fill="#007AFF"/>
<path d="M15.44 76.9801L15.38 75.3901C15.37 75.0801 15.78 74.9401 15.99 75.1701L16.4 75.6101C16.75 75.9901 16.95 76.4701 16.97 76.9601L17.02 78.5501C17.03 78.8601 16.62 79.0101 16.41 78.7701L16 78.3301C15.66 77.9501 15.45 77.4701 15.44 76.9801Z" fill="#007AFF"/>
<path d="M17.74 78.97L17.57 77.39C17.54 77.09 17.93 76.91 18.16 77.12L18.6 77.53C18.98 77.88 19.21 78.34 19.26 78.84L19.43 80.42C19.46 80.72 19.07 80.9 18.84 80.69L18.4 80.28C18.02 79.93 17.79 79.47 17.74 78.97Z" fill="#007AFF"/>
<path d="M20.18 80.81L19.9 79.25C19.85 78.95 20.23 78.74 20.47 78.94L20.94 79.32C21.34 79.65 21.6 80.09 21.69 80.58L21.97 82.14C22.02 82.44 21.64 82.64 21.4 82.45L20.93 82.07C20.53 81.74 20.26 81.3 20.18 80.81Z" fill="#007AFF"/>
<path d="M22.74 82.4701L22.36 80.9301C22.29 80.6301 22.65 80.4001 22.91 80.5801L23.4 80.9301C23.82 81.2301 24.12 81.6501 24.24 82.1401L24.63 83.6801C24.7 83.9801 24.34 84.2101 24.08 84.0201L23.59 83.6801C23.15 83.3701 22.86 82.9501 22.74 82.4701Z" fill="#007AFF"/>
<path d="M25.41 83.94L24.92 82.43C24.83 82.14 25.17 81.88 25.44 82.05L25.96 82.36C26.4 82.63 26.72 83.03 26.88 83.5L27.37 85.01C27.47 85.3 27.11 85.55 26.84 85.39L26.33 85.08C25.89 84.82 25.56 84.41 25.41 83.94Z" fill="#007AFF"/>
<path d="M28.17 85.22L27.57 83.75C27.46 83.47 27.79 83.19 28.07 83.33L28.61 83.6C29.07 83.83 29.42 84.22 29.61 84.68L30.2 86.15C30.32 86.43 29.99 86.71 29.71 86.57L29.17 86.29C28.71 86.07 28.36 85.69 28.17 85.22Z" fill="#007AFF"/>
<path d="M31.02 86.31L30.32 84.88C30.19 84.61 30.49 84.3 30.78 84.43L31.33 84.67C31.8 84.87 32.18 85.23 32.4 85.68L33.1 87.11C33.23 87.38 32.92 87.68 32.63 87.56L32.08 87.32C31.62 87.12 31.24 86.76 31.02 86.31Z" fill="#007AFF"/>
<path d="M33.94 87.2L33.15 85.82C33 85.55 33.28 85.23 33.58 85.34L34.15 85.54C34.64 85.71 35.04 86.04 35.29 86.47L36.08 87.85C36.23 88.12 35.94 88.44 35.65 88.33L35.08 88.13C34.59 87.96 34.19 87.63 33.94 87.2Z" fill="#007AFF"/>
<path d="M36.91 87.8801L36.02 86.5701C35.85 86.3101 36.12 85.9701 36.42 86.0601L37 86.2101C37.5 86.3401 37.92 86.6401 38.2 87.0601L39.09 88.3801C39.26 88.6301 38.99 88.9701 38.69 88.8901L38.11 88.7301C37.61 88.6001 37.19 88.3001 36.91 87.8801Z" fill="#007AFF"/>
<path d="M39.92 88.36L38.94 87.11C38.75 86.87 38.99 86.51 39.3 86.57L39.89 86.69C40.4 86.79 40.84 87.06 41.15 87.45L42.13 88.7C42.32 88.94 42.08 89.3 41.77 89.24L41.18 89.12C40.67 89.02 40.23 88.76 39.92 88.36Z" fill="#007AFF"/>
<path d="M42.96 88.6201L41.9 87.4401C41.7 87.2101 41.91 86.8401 42.22 86.8801L42.82 86.9501C43.33 87.0101 43.79 87.2501 44.13 87.6201L45.19 88.8001C45.39 89.0301 45.18 89.4001 44.87 89.3601L44.27 89.2801C43.76 89.2301 43.3 88.9901 42.96 88.6201Z" fill="#007AFF"/>
<path d="M46.01 88.67L44.87 87.56C44.65 87.35 44.84 86.96 45.15 86.98L45.75 87.01C46.26 87.04 46.74 87.24 47.1 87.59L48.24 88.7C48.46 88.91 48.27 89.3 47.96 89.28L47.36 89.25C46.85 89.22 46.37 89.02 46.01 88.67Z" fill="#007AFF"/>
<path d="M49.06 88.5101L47.84 87.4901C47.61 87.2901 47.77 86.8901 48.08 86.8901L48.68 86.8801C49.19 86.8701 49.68 87.0401 50.07 87.3601L51.29 88.3801C51.52 88.5701 51.36 88.9801 51.05 88.9801L50.45 88.9901C49.93 89.0001 49.44 88.8301 49.06 88.5101Z" fill="#007AFF"/>
<path d="M52.09 88.14L50.8 87.2C50.56 87.02 50.69 86.61 51 86.58L51.6 86.53C52.11 86.49 52.61 86.62 53.01 86.92L54.3 87.85C54.55 88.03 54.41 88.44 54.1 88.47L53.5 88.52C52.99 88.56 52.49 88.43 52.09 88.14Z" fill="#007AFF"/>
<path d="M55.08 87.55L53.73 86.7C53.47 86.54 53.57 86.12 53.88 86.07L54.48 85.98C54.99 85.9 55.5 86 55.92 86.27L57.27 87.11C57.53 87.27 57.42 87.69 57.11 87.74L56.51 87.83C56.01 87.92 55.5 87.81 55.08 87.55Z" fill="#007AFF"/>
<path d="M58.02 86.76L56.62 86.02C56.35 85.87 56.43 85.45 56.73 85.38L57.32 85.25C57.82 85.14 58.34 85.2 58.78 85.43L60.18 86.18C60.45 86.32 60.38 86.75 60.07 86.82L59.48 86.95C58.98 87.06 58.46 86.99 58.02 86.76Z" fill="#007AFF"/>
<path d="M60.91 85.76L59.46 85.11C59.18 84.99 59.22 84.56 59.52 84.46L60.1 84.29C60.59 84.14 61.11 84.17 61.57 84.37L63.02 85.02C63.3 85.15 63.25 85.58 62.96 85.67L62.38 85.84C61.88 85.99 61.36 85.97 60.91 85.76Z" fill="#007AFF"/>
<path d="M63.71 84.57L62.22 84.02C61.93 83.92 61.95 83.48 62.24 83.37L62.81 83.16C63.29 82.98 63.81 82.97 64.28 83.14L65.77 83.68C66.06 83.78 66.04 84.22 65.75 84.33L65.18 84.54C64.7 84.73 64.18 84.74 63.71 84.57Z" fill="#007AFF"/>
<path d="M66.43 83.18L64.9 82.74C64.61 82.66 64.59 82.22 64.87 82.09L65.42 81.84C65.89 81.62 66.4 81.58 66.88 81.72L68.41 82.16C68.7 82.24 68.72 82.68 68.43 82.81L67.88 83.06C67.43 83.28 66.91 83.32 66.43 83.18Z" fill="#007AFF"/>
<path d="M69.04 81.61L67.49 81.28C67.19 81.22 67.14 80.79 67.42 80.63L67.95 80.34C68.4 80.09 68.91 80.01 69.4 80.12L70.95 80.45C71.25 80.51 71.29 80.94 71.02 81.1L70.49 81.39C70.04 81.63 69.53 81.71 69.04 81.61Z" fill="#007AFF"/>
<path d="M71.54 79.86L69.96 79.64C69.66 79.6 69.58 79.17 69.85 79L70.36 78.67C70.79 78.39 71.3 78.27 71.79 78.34L73.36 78.56C73.66 78.6 73.74 79.03 73.48 79.2L72.97 79.53C72.54 79.81 72.03 79.93 71.54 79.86Z" fill="#007AFF"/>
<path d="M73.91 77.9401L72.33 77.8301C72.03 77.8101 71.92 77.39 72.17 77.2L72.65 76.84C73.06 76.53 73.56 76.38 74.05 76.42L75.64 76.53C75.95 76.55 76.05 76.9701 75.8 77.1601L75.31 77.52C74.9 77.82 74.4 77.9701 73.91 77.9401Z" fill="#007AFF"/>
<path fill-rule="evenodd" clip-rule="evenodd" d="M41.46 9.99001L43.78 8.32001L42.88 5.58001L45.18 7.27001L47.51 5.57001L46.62 8.28001L48.95 9.97001L46.09 9.96001L45.21 12.7L44.34 9.98001L41.46 9.99001Z" fill="#007AFF"/>
<path fill-rule="evenodd" clip-rule="evenodd" d="M28.34 14.09L29.85 11.66L27.97 9.47L30.75 10.15L32.25 7.69L32.46 10.54L35.26 11.2L32.62 12.29L32.85 15.16L31 12.98L28.34 14.09Z" fill="#007AFF"/>
<path fill-rule="evenodd" clip-rule="evenodd" d="M17.79 22.89L18.26 20.07L15.68 18.77L18.51 18.33L18.95 15.49L20.24 18.04L23.09 17.58L21.05 19.59L22.37 22.16L19.83 20.85L17.79 22.89Z" fill="#007AFF"/>
<path fill-rule="evenodd" clip-rule="evenodd" d="M11.42 35.06L10.77 32.28L7.89 32.06L10.34 30.58L9.66 27.78L11.82 29.64L14.28 28.13L13.17 30.77L15.37 32.64L12.52 32.4L11.42 35.06Z" fill="#007AFF"/>
<path fill-rule="evenodd" clip-rule="evenodd" d="M10.19 48.75L8.52 46.43L5.78 47.32L7.47 45.02L5.77 42.69L8.49 43.59L10.18 41.25L10.16 44.11L12.91 44.99L10.18 45.87L10.19 48.75Z" fill="#007AFF"/>
<path fill-rule="evenodd" clip-rule="evenodd" d="M14.29 61.8601L11.86 60.3601L9.67 62.2301L10.35 59.4601L7.89 57.9601L10.74 57.7501L11.41 54.9401L12.49 57.5901L15.36 57.3501L13.18 59.2001L14.29 61.8601Z" fill="#007AFF"/>
<path fill-rule="evenodd" clip-rule="evenodd" d="M23.1 72.41L20.27 71.95L18.97 74.52L18.54 71.69L15.69 71.25L18.24 69.96L17.78 67.12L19.8 69.15L22.36 67.83L21.05 70.38L23.1 72.41Z" fill="#007AFF"/>
<path fill-rule="evenodd" clip-rule="evenodd" d="M35.27 78.78L32.48 79.44L32.27 82.31L30.78 79.87L27.98 80.55L29.85 78.38L28.34 75.93L30.97 77.03L32.84 74.84L32.6 77.69L35.27 78.78Z" fill="#007AFF"/>
<path fill-rule="evenodd" clip-rule="evenodd" d="M48.95 80.01L46.63 81.68L47.53 84.42L45.22 82.73L42.9 84.43L43.79 81.72L41.46 80.03L44.31 80.04L45.2 77.3L46.07 80.02L48.95 80.01Z" fill="#007AFF"/>
<path fill-rule="evenodd" clip-rule="evenodd" d="M62.07 75.91L60.56 78.34L62.44 80.53L59.66 79.85L58.16 82.31L57.95 79.46L55.15 78.8L57.79 77.71L57.56 74.84L59.41 77.02L62.07 75.91Z" fill="#007AFF"/>
<path fill-rule="evenodd" clip-rule="evenodd" d="M72.61 67.11L72.15 69.93L74.72 71.23L71.9 71.67L71.45 74.51L70.17 71.96L67.32 72.42L69.35 70.41L68.04 67.84L70.58 69.15L72.61 67.11Z" fill="#007AFF"/>
<path fill-rule="evenodd" clip-rule="evenodd" d="M78.99 54.9401L79.64 57.7201L82.51 57.9401L80.07 59.4201L80.75 62.2201L78.58 60.3601L76.13 61.8701L77.24 59.2301L75.04 57.3601L77.89 57.6001L78.99 54.9401Z" fill="#007AFF"/>
<path fill-rule="evenodd" clip-rule="evenodd" d="M80.22 41.25L81.89 43.57L84.63 42.68L82.93 44.98L84.63 47.31L81.92 46.41L80.23 48.75L80.24 45.89L77.5 45.01L80.22 44.13V41.25Z" fill="#007AFF"/>
<path fill-rule="evenodd" clip-rule="evenodd" d="M76.12 28.14L78.55 29.64L80.74 27.77L80.05 30.54L82.52 32.04L79.66 32.25L79 35.06L77.92 32.41L75.04 32.65L77.23 30.8L76.12 28.14Z" fill="#007AFF"/>
<path fill-rule="evenodd" clip-rule="evenodd" d="M67.31 17.59L70.13 18.05L71.44 15.48L71.87 18.31L74.72 18.75L72.16 20.04L72.62 22.88L70.61 20.85L68.04 22.17L69.35 19.62L67.31 17.59Z" fill="#007AFF"/>
<path fill-rule="evenodd" clip-rule="evenodd" d="M55.14 11.22L57.92 10.56L58.14 7.69L59.62 10.13L62.43 9.45L60.56 11.62L62.07 14.07L59.43 12.97L57.57 15.16L57.81 12.31L55.14 11.22Z" fill="#007AFF"/>
<path d="M45.2 14.56C28.42 14.56 14.77 28.21 14.77 45C14.77 61.78 28.42 75.43 45.2 75.43C61.98 75.43 75.64 61.78 75.64 45C75.64 28.22 61.99 14.56 45.2 14.56ZM45.2 74.75C28.8 74.75 15.45 61.41 15.45 45C15.45 28.59 28.8 15.25 45.2 15.25C61.6 15.25 74.96 28.59 74.96 45C74.96 61.41 61.61 74.75 45.2 74.75Z" fill="#007AFF"/>
<path d="M45.2 17.37C29.94 17.37 17.57 29.74 17.57 45C17.57 60.26 29.94 72.63 45.2 72.63C60.46 72.63 72.83 60.26 72.83 45C72.84 29.74 60.46 17.37 45.2 17.37ZM50.52 35.51L52.1 36.58C52.31 36.7 52.56 36.7 52.77 36.58L54.4 35.79C54.66 35.65 54.99 35.71 55.19 35.93C55.67 36.44 56.12 37 56.51 37.58C56.67 37.83 56.64 38.15 56.45 38.37L55.25 39.74C55.09 39.92 55.04 40.17 55.12 40.4L55.74 42.2C55.82 42.43 56.02 42.59 56.26 42.63L58.06 42.93C58.35 42.98 58.58 43.21 58.61 43.51C58.68 43.86 58.68 44.18 58.68 44.55V45.63C58.66 45.92 58.45 46.17 58.16 46.25L56.39 46.65C56.16 46.71 55.97 46.88 55.9 47.11L55.36 48.92C55.3 49.15 55.36 49.4 55.53 49.58L56.82 50.88C57.03 51.09 57.07 51.41 56.93 51.67C56.57 52.29 56.17 52.88 55.72 53.44C55.53 53.67 55.2 53.75 54.93 53.62L53.25 52.9C53.03 52.8 52.77 52.84 52.58 52.98L51.07 54.14C50.88 54.29 50.78 54.53 50.82 54.77L51.09 56.58C51.14 56.87 50.99 57.16 50.72 57.27C50.07 57.6 49.4 57.87 48.71 58.09C48.42 58.16 48.13 58.03 47.98 57.78L47.05 56.2C46.93 55.99 46.7 55.87 46.46 55.88L44.55 55.94C44.31 55.94 44.09 56.08 43.98 56.3L43.13 57.88C43 58.14 42.71 58.28 42.42 58.23C41.72 58.08 41.03 57.88 40.37 57.62C40.1 57.51 39.93 57.24 39.96 56.95L40.13 55.13C40.15 54.89 40.05 54.66 39.85 54.52L38.27 53.45C38.08 53.32 37.82 53.3 37.61 53.4L35.98 54.19C35.71 54.33 35.39 54.27 35.19 54.06C34.71 53.52 34.27 52.95 33.88 52.35C33.72 52.1 33.75 51.78 33.95 51.56L35.16 50.19C35.32 50.01 35.37 49.76 35.29 49.53L34.65 47.74C34.57 47.51 34.38 47.34 34.14 47.3L32.34 47C32.05 46.95 31.83 46.71 31.8 46.42C31.76 46.09 31.72 45.8 31.72 45.42V44.3C31.73 44 31.95 43.75 32.24 43.68L34.02 43.28C34.25 43.22 34.44 43.05 34.5 42.82L35.04 41C35.11 40.77 35.05 40.52 34.88 40.34L33.6 39.04C33.39 38.83 33.35 38.51 33.49 38.25C33.85 37.63 34.26 37.04 34.7 36.49C34.89 36.25 35.22 36.18 35.49 36.31L37.17 37.04C37.39 37.14 37.65 37.1 37.84 36.96L39.35 35.8C39.54 35.65 39.64 35.42 39.6 35.18L39.32 33.34C39.28 33.05 39.42 32.77 39.69 32.65C40.34 32.36 41.02 32.12 41.71 31.93C41.99 31.86 42.29 31.98 42.44 32.24L43.37 33.82C43.49 34.03 43.71 34.15 43.96 34.15L45.87 34.1C46.11 34.1 46.33 33.96 46.44 33.74L47.3 32.16C47.43 31.9 47.72 31.76 48.01 31.82C48.68 31.97 49.33 32.16 49.96 32.4C50.23 32.5 50.4 32.78 50.38 33.07L50.21 34.94C50.2 35.15 50.32 35.38 50.52 35.51ZM57.25 57.34L57.14 57.46C56.85 57.81 56.59 58.19 56.28 58.52C55.48 59.39 54.68 60.27 53.81 61.11C53.14 61.78 52.39 62.35 51.57 62.83C51.2 63.04 50.82 63.23 50.43 63.4C49.56 63.77 48.6 63.86 47.68 63.68C47.07 63.58 46.48 63.38 45.93 63.09C45.9 63.07 45.87 63.06 45.83 63.04C45.93 62.99 46.04 62.95 46.14 62.91C47.03 62.64 47.87 62.23 48.63 61.71C49.66 61.01 50.64 60.25 51.58 59.45C52.76 58.51 54.16 57.87 55.64 57.61C56.12 57.52 56.6 57.45 57.08 57.37L57.25 57.34ZM44.25 27.1C43.36 27.37 42.52 27.78 41.75 28.3C40.73 29 39.74 29.76 38.8 30.56C37.62 31.5 36.23 32.14 34.74 32.39C34.26 32.49 33.78 32.55 33.3 32.63L33.15 32.65L33.26 32.53C33.55 32.18 33.81 31.8 34.12 31.47C34.92 30.6 35.72 29.72 36.59 28.88C37.26 28.21 38.01 27.63 38.83 27.16C39.2 26.95 39.58 26.76 39.97 26.59C40.84 26.22 41.8 26.12 42.73 26.31C43.34 26.41 43.93 26.61 44.47 26.9C44.51 26.92 44.53 26.94 44.57 26.95C44.46 27.02 44.35 27.06 44.25 27.1ZM39.06 25.65C37.89 26.2 36.82 26.93 35.87 27.82C35.79 27.89 35.7 27.97 35.62 28.05C34.82 28.79 34.02 29.56 33.22 30.3C32.82 30.68 32.42 31.04 32.03 31.39C31.26 32.04 30.32 32.4 29.35 32.66C29.31 32.67 29.27 32.68 29.24 32.69C29.08 32.73 28.92 32.77 28.76 32.8C28.67 32.82 28.59 32.84 28.5 32.85C28.35 32.88 28.22 32.9 28.1 32.92C28.09 32.92 28.09 32.92 28.08 32.92C27.92 32.93 27.77 32.93 27.54 32.98C27.64 32.81 27.71 32.71 27.76 32.63C28.25 31.92 28.85 31.3 29.39 30.63C29.85 30.07 30.31 29.51 30.77 28.95C31.7 27.77 32.82 26.75 34.08 25.94C35.04 25.38 36.12 25.03 37.23 24.92C37.96 24.84 38.7 24.9 39.41 25.1C39.55 25.14 39.69 25.2 39.83 25.26C39.51 25.43 39.29 25.54 39.06 25.65ZM55.59 66.12C55.46 66.23 55.32 66.33 55.18 66.43C54.55 66.85 53.89 67.28 53.2 67.58C52.89 67.74 52.56 67.88 52.23 68C52.15 68.03 52.06 68.06 51.98 68.08C51.36 68.31 50.72 68.5 50.08 68.62C49.22 68.79 48.33 68.86 47.45 68.83C47.41 68.83 47.37 68.83 47.32 68.82C46.06 68.73 44.83 68.49 43.62 68.13L39.45 66.59C40.02 67.04 40.62 67.45 41.25 67.81C41.38 67.88 41.5 67.95 41.63 68.02C42.49 68.48 43.39 68.85 44.33 69.13C44.5 69.18 44.85 69.27 44.86 69.27C45.13 69.34 45.4 69.41 45.69 69.46C46.15 69.55 46.62 69.62 47.1 69.67C47.18 69.68 47.26 69.68 47.33 69.69C47.31 69.7 47.29 69.72 47.27 69.73C47.25 69.75 47.23 69.75 47.21 69.77C47.12 69.83 47.02 69.87 46.92 69.92C46.49 70.13 46.05 70.29 45.6 70.41C40.99 71.72 35.29 69.31 31.55 66.9C29.64 65.67 27.88 64.23 26.29 62.61C24.58 60.87 23.15 58.88 22.02 56.71C21.94 56.55 21.86 56.39 21.78 56.22C21.24 55.11 20.79 53.96 20.42 52.78C19.84 50.96 19.5 49.08 19.39 47.18C19.34 46.02 19.27 44.85 19.32 43.7C19.38 41.88 19.61 40.08 20.03 38.32C20.41 36.8 20.91 35.32 21.55 33.88C21.7 33.55 21.84 33.24 22.01 32.92C22.03 32.86 22.06 32.81 22.09 32.75C24.31 28.62 27.61 25.16 31.62 22.75C31.61 22.78 31.59 22.81 31.58 22.83C31.56 22.86 31.54 22.89 31.52 22.93C30.84 23.73 30.18 24.53 29.48 25.34C27.85 27.12 26.46 29.12 25.35 31.27C24.1 33.66 23.3 36.26 23 38.94C22.72 41.75 23.06 44.58 23.98 47.24C24.5 48.88 25.24 50.43 26.19 51.86C26.19 51.87 26.21 51.88 26.21 51.9C26.6 52.49 27.02 53.05 27.47 53.58C27.5 53.62 27.52 53.65 27.55 53.68C27.58 53.71 27.61 53.74 27.63 53.78C28.43 54.74 29.37 55.6 30.4 56.31C30.76 56.53 31.15 56.7 31.55 56.82C31.57 56.82 31.59 56.83 31.61 56.83C31.67 56.85 31.73 56.86 31.8 56.88C33.52 57.27 35.17 57.89 36.73 58.7C37.91 59.36 39.1 60.02 40.27 60.71C40.69 60.96 41.11 61.21 41.53 61.47C42.3 61.96 43.09 62.42 43.89 62.86C45.06 63.5 46.27 64.09 47.5 64.62C48.27 64.96 49.07 65.25 49.89 65.46C50.54 65.63 51.2 65.76 51.86 65.85C52.28 65.89 52.69 65.93 53.1 65.96C53.86 66 54.61 66.02 55.38 65.98C55.51 65.98 55.63 65.97 55.76 65.96C55.71 66.03 55.65 66.08 55.59 66.12ZM53.18 65.06C52.45 65.13 51.71 65.08 51 64.88C50.86 64.84 50.72 64.78 50.58 64.72C50.88 64.57 51.11 64.45 51.34 64.35C52.51 63.8 53.59 63.07 54.53 62.17C54.61 62.1 54.69 62.02 54.77 61.94C55.57 61.21 56.37 60.43 57.17 59.69C57.57 59.31 57.97 58.95 58.36 58.59C59.14 57.94 60.07 57.58 61.04 57.33C61.08 57.32 61.12 57.31 61.15 57.3C61.31 57.26 61.47 57.22 61.63 57.19C61.72 57.17 61.8 57.15 61.89 57.14C62.04 57.11 62.17 57.09 62.3 57.07C62.3 57.07 62.31 57.07 62.32 57.07C62.48 57.06 62.62 57.06 62.85 57.01C62.75 57.18 62.69 57.28 62.63 57.36C62.15 58.07 61.54 58.69 61 59.36H60.99C60.53 59.92 60.07 60.48 59.61 61.03C58.68 62.21 57.56 63.23 56.29 64.04C55.37 64.6 54.29 64.94 53.18 65.06ZM70.38 51.68C70 53.2 69.5 54.68 68.86 56.12C68.71 56.44 68.57 56.76 68.4 57.08C68.38 57.14 68.35 57.19 68.32 57.25C66.1 61.38 62.8 64.84 58.79 67.24C58.81 67.21 58.82 67.19 58.83 67.16C58.85 67.12 58.87 67.09 58.89 67.06C59.57 66.26 60.23 65.46 60.93 64.65C62.56 62.86 63.95 60.87 65.06 58.72C66.31 56.33 67.11 53.73 67.41 51.05C67.68 48.24 67.35 45.41 66.43 42.75C65.91 41.11 65.16 39.56 64.22 38.13C64.21 38.12 64.2 38.11 64.2 38.09C63.81 37.51 63.39 36.95 62.93 36.41C62.9 36.38 62.88 36.35 62.85 36.31C62.82 36.28 62.79 36.25 62.77 36.21C61.97 35.25 61.03 34.39 60 33.68C59.64 33.46 59.25 33.29 58.85 33.18C58.83 33.18 58.81 33.17 58.79 33.16C58.73 33.14 58.67 33.13 58.61 33.12C56.89 32.73 55.23 32.11 53.68 31.29C52.5 30.63 51.32 29.97 50.14 29.28C49.72 29.03 49.3 28.78 48.88 28.53C48.11 28.04 47.32 27.58 46.52 27.14C45.35 26.5 44.14 25.91 42.91 25.39C42.14 25.05 41.34 24.76 40.52 24.54C39.87 24.37 39.21 24.24 38.55 24.15C38.13 24.1 37.72 24.07 37.31 24.04C36.55 24 35.8 23.98 35.03 24.01C34.9 24.01 34.78 24.03 34.65 24.03C34.71 23.99 34.77 23.94 34.83 23.89C34.96 23.78 35.1 23.68 35.25 23.58C35.88 23.16 36.54 22.74 37.22 22.44C37.53 22.28 37.86 22.14 38.19 22.02C38.27 21.99 38.36 21.96 38.44 21.94C39.06 21.71 39.7 21.52 40.35 21.4C41.21 21.23 42.09 21.17 42.98 21.2C43.02 21.2 43.07 21.2 43.11 21.2C44.37 21.3 45.6 21.53 46.81 21.89L50.98 23.43C50.41 22.98 49.81 22.57 49.18 22.22C49.05 22.15 48.93 22.07 48.8 22.01C47.94 21.55 47.04 21.18 46.1 20.9C45.93 20.85 45.58 20.76 45.58 20.75C45.31 20.68 45.03 20.62 44.75 20.56C44.28 20.47 43.81 20.4 43.34 20.35C43.26 20.34 43.19 20.33 43.11 20.33C43.13 20.32 43.15 20.3 43.18 20.29C43.2 20.28 43.22 20.27 43.23 20.26C43.33 20.2 43.42 20.16 43.52 20.11C43.95 19.91 44.39 19.74 44.84 19.62C49.45 18.32 55.15 20.73 58.89 23.13C60.8 24.36 62.56 25.8 64.15 27.42C65.86 29.16 67.29 31.15 68.42 33.31C68.5 33.47 68.58 33.64 68.66 33.8C69.2 34.91 69.65 36.06 70.02 37.24C70.6 39.06 70.95 40.94 71.05 42.85C71.1 44.01 71.18 45.18 71.13 46.33C71.04 48.12 70.79 49.92 70.38 51.68Z" fill="#007AFF"/>
<path d="M50.64 40.23C48.01 37.23 43.45 36.94 40.45 39.56C37.45 42.19 37.16 46.76 39.78 49.75C42.41 52.75 46.98 53.05 49.97 50.42C52.98 47.79 53.28 43.22 50.64 40.23ZM45.71 48.47C45.19 48.76 44.6 48.92 44 48.94H43.8C41.62 48.92 39.88 47.14 39.9 44.96C39.92 43.43 40.82 42.04 42.23 41.41C42.38 41.34 42.54 41.28 42.69 41.23C43.07 41.11 43.47 41.06 43.87 41.06C45.23 41.06 46.49 41.76 47.21 42.92C46.3 41.89 44.82 41.57 43.56 42.13C43.41 42.2 43.27 42.28 43.14 42.37C42.25 42.95 41.7 43.93 41.69 44.99C41.69 45.67 41.9 46.34 42.31 46.89C42.9 47.69 43.84 48.16 44.83 48.17C45.04 48.17 45.24 48.15 45.44 48.11C46.11 47.98 46.73 47.64 47.19 47.13C46.82 47.69 46.29 48.15 45.71 48.47ZM49.66 45.05L49.88 45.36L50.49 46.21L49.13 45.76L48.29 46.92V45.49L46.93 45.03L48.29 44.6L48.31 43.17L48.67 43.67L49.15 44.33L50.51 43.9L49.66 45.05Z" fill="#007AFF"/>
</g>
<defs>
<clipPath id="clip0_202_189">
<rect width="90" height="90" fill="white"/>
</clipPath>
</defs>
</svg>
